<mxfile host="app.diagrams.net" agent="Mozilla/5.0 (Windows NT 10.0; Win64; x64) AppleWebKit/537.36 (KHTML, like Gecko) Chrome/137.0.0.0 Safari/537.36 OPR/121.0.0.0" version="28.2.3">
  <diagram name="Page-1" id="ktvjF4j9YvUwuoizGOsz">
    <mxGraphModel dx="1625" dy="2060" grid="1" gridSize="10" guides="1" tooltips="1" connect="1" arrows="1" fold="1" page="1" pageScale="1" pageWidth="827" pageHeight="1169" math="0" shadow="0">
      <root>
        <mxCell id="0" />
        <mxCell id="1" parent="0" />
        <mxCell id="KHpiyqk_ItHP6PIgyYqf-26" value="Controller" style="html=1;whiteSpace=wrap;" vertex="1" parent="1">
          <mxGeometry x="500" y="70" width="110" height="50" as="geometry" />
        </mxCell>
        <mxCell id="KHpiyqk_ItHP6PIgyYqf-27" value="User" style="html=1;whiteSpace=wrap;" vertex="1" parent="1">
          <mxGeometry x="260" y="70" width="110" height="50" as="geometry" />
        </mxCell>
        <mxCell id="KHpiyqk_ItHP6PIgyYqf-30" value="" style="html=1;points=[[0,0,0,0,5],[0,1,0,0,-5],[1,0,0,0,5],[1,1,0,0,-5]];perimeter=orthogonalPerimeter;outlineConnect=0;targetShapes=umlLifeline;portConstraint=eastwest;newEdgeStyle={&quot;curved&quot;:0,&quot;rounded&quot;:0};" vertex="1" parent="1">
          <mxGeometry x="550" y="135" width="10" height="105" as="geometry" />
        </mxCell>
        <mxCell id="KHpiyqk_ItHP6PIgyYqf-31" value="getTopic(categorie : string)" style="html=1;verticalAlign=bottom;endArrow=block;curved=0;rounded=0;entryX=0;entryY=0;entryDx=0;entryDy=5;entryPerimeter=0;exitX=1;exitY=0.043;exitDx=0;exitDy=0;exitPerimeter=0;" edge="1" parent="1" source="KHpiyqk_ItHP6PIgyYqf-33">
          <mxGeometry relative="1" as="geometry">
            <mxPoint x="370" y="160" as="sourcePoint" />
            <mxPoint x="550" y="160" as="targetPoint" />
          </mxGeometry>
        </mxCell>
        <mxCell id="KHpiyqk_ItHP6PIgyYqf-33" value="" style="html=1;points=[[0,0,0,0,5],[0,1,0,0,-5],[1,0,0,0,5],[1,1,0,0,-5]];perimeter=orthogonalPerimeter;outlineConnect=0;targetShapes=umlLifeline;portConstraint=eastwest;newEdgeStyle={&quot;curved&quot;:0,&quot;rounded&quot;:0};" vertex="1" parent="1">
          <mxGeometry x="310" y="135" width="10" height="565" as="geometry" />
        </mxCell>
        <mxCell id="KHpiyqk_ItHP6PIgyYqf-34" value="" style="endArrow=none;dashed=1;html=1;rounded=0;entryX=0.5;entryY=1;entryDx=0;entryDy=0;" edge="1" parent="1" source="KHpiyqk_ItHP6PIgyYqf-33" target="KHpiyqk_ItHP6PIgyYqf-27">
          <mxGeometry width="50" height="50" relative="1" as="geometry">
            <mxPoint x="315" y="740" as="sourcePoint" />
            <mxPoint x="440" y="370" as="targetPoint" />
          </mxGeometry>
        </mxCell>
        <mxCell id="KHpiyqk_ItHP6PIgyYqf-35" value="" style="endArrow=none;dashed=1;html=1;rounded=0;entryX=0.5;entryY=1;entryDx=0;entryDy=0;fillColor=none;" edge="1" parent="1" source="KHpiyqk_ItHP6PIgyYqf-30">
          <mxGeometry width="50" height="50" relative="1" as="geometry">
            <mxPoint x="554.5" y="740" as="sourcePoint" />
            <mxPoint x="554.5" y="120" as="targetPoint" />
          </mxGeometry>
        </mxCell>
        <mxCell id="KHpiyqk_ItHP6PIgyYqf-36" value="getAnomalyType()" style="html=1;verticalAlign=bottom;endArrow=block;curved=0;rounded=0;entryX=0;entryY=0;entryDx=0;entryDy=5;entryPerimeter=0;exitX=1;exitY=0.043;exitDx=0;exitDy=0;exitPerimeter=0;" edge="1" parent="1">
          <mxGeometry relative="1" as="geometry">
            <mxPoint x="320" y="290" as="sourcePoint" />
            <mxPoint x="550" y="290" as="targetPoint" />
          </mxGeometry>
        </mxCell>
        <mxCell id="KHpiyqk_ItHP6PIgyYqf-38" value="" style="endArrow=none;dashed=1;html=1;rounded=0;entryX=0.5;entryY=1;entryDx=0;entryDy=0;" edge="1" parent="1" target="KHpiyqk_ItHP6PIgyYqf-37">
          <mxGeometry width="50" height="50" relative="1" as="geometry">
            <mxPoint x="555" y="420" as="sourcePoint" />
            <mxPoint x="554.5" y="120" as="targetPoint" />
          </mxGeometry>
        </mxCell>
        <mxCell id="KHpiyqk_ItHP6PIgyYqf-37" value="" style="html=1;points=[[0,0,0,0,5],[0,1,0,0,-5],[1,0,0,0,5],[1,1,0,0,-5]];perimeter=orthogonalPerimeter;outlineConnect=0;targetShapes=umlLifeline;portConstraint=eastwest;newEdgeStyle={&quot;curved&quot;:0,&quot;rounded&quot;:0};" vertex="1" parent="1">
          <mxGeometry x="550" y="270" width="10" height="85" as="geometry" />
        </mxCell>
        <mxCell id="KHpiyqk_ItHP6PIgyYqf-42" value="" style="html=1;points=[[0,0,0,0,5],[0,1,0,0,-5],[1,0,0,0,5],[1,1,0,0,-5]];perimeter=orthogonalPerimeter;outlineConnect=0;targetShapes=umlLifeline;portConstraint=eastwest;newEdgeStyle={&quot;curved&quot;:0,&quot;rounded&quot;:0};" vertex="1" parent="1">
          <mxGeometry x="550" y="420" width="10" height="85" as="geometry" />
        </mxCell>
        <mxCell id="KHpiyqk_ItHP6PIgyYqf-43" value="getRegisterType()" style="html=1;verticalAlign=bottom;endArrow=block;curved=0;rounded=0;entryX=0;entryY=0;entryDx=0;entryDy=5;entryPerimeter=0;exitX=1;exitY=0.043;exitDx=0;exitDy=0;exitPerimeter=0;" edge="1" parent="1">
          <mxGeometry relative="1" as="geometry">
            <mxPoint x="320" y="440" as="sourcePoint" />
            <mxPoint x="550" y="440" as="targetPoint" />
          </mxGeometry>
        </mxCell>
        <mxCell id="KHpiyqk_ItHP6PIgyYqf-45" value="" style="html=1;points=[[0,0,0,0,5],[0,1,0,0,-5],[1,0,0,0,5],[1,1,0,0,-5]];perimeter=orthogonalPerimeter;outlineConnect=0;targetShapes=umlLifeline;portConstraint=eastwest;newEdgeStyle={&quot;curved&quot;:0,&quot;rounded&quot;:0};" vertex="1" parent="1">
          <mxGeometry x="550" y="620" width="10" height="80" as="geometry" />
        </mxCell>
        <mxCell id="KHpiyqk_ItHP6PIgyYqf-46" value="" style="endArrow=none;dashed=1;html=1;rounded=0;" edge="1" parent="1" source="KHpiyqk_ItHP6PIgyYqf-45" target="KHpiyqk_ItHP6PIgyYqf-42">
          <mxGeometry width="50" height="50" relative="1" as="geometry">
            <mxPoint x="554.66" y="585" as="sourcePoint" />
            <mxPoint x="554.66" y="520" as="targetPoint" />
          </mxGeometry>
        </mxCell>
        <mxCell id="KHpiyqk_ItHP6PIgyYqf-47" value="createAnomalyTemplate()" style="html=1;verticalAlign=bottom;endArrow=block;curved=0;rounded=0;entryX=0;entryY=0;entryDx=0;entryDy=5;entryPerimeter=0;exitX=1;exitY=0.043;exitDx=0;exitDy=0;exitPerimeter=0;" edge="1" parent="1">
          <mxGeometry relative="1" as="geometry">
            <mxPoint x="320" y="662.16" as="sourcePoint" />
            <mxPoint x="550" y="662.16" as="targetPoint" />
          </mxGeometry>
        </mxCell>
        <mxCell id="KHpiyqk_ItHP6PIgyYqf-48" value="" style="endArrow=none;dashed=1;html=1;rounded=0;" edge="1" parent="1" target="KHpiyqk_ItHP6PIgyYqf-33">
          <mxGeometry width="50" height="50" relative="1" as="geometry">
            <mxPoint x="315" y="720" as="sourcePoint" />
            <mxPoint x="314.86" y="710" as="targetPoint" />
          </mxGeometry>
        </mxCell>
        <mxCell id="KHpiyqk_ItHP6PIgyYqf-50" value="Diagramme de séquence : création d&#39;un template d&#39;anomalie" style="shape=umlFrame;whiteSpace=wrap;html=1;pointerEvents=0;recursiveResize=0;container=1;collapsible=0;width=170;height=50;" vertex="1" parent="1">
          <mxGeometry x="130" y="-10" width="840" height="840" as="geometry" />
        </mxCell>
        <mxCell id="KHpiyqk_ItHP6PIgyYqf-51" value="BDD" style="html=1;whiteSpace=wrap;" vertex="1" parent="KHpiyqk_ItHP6PIgyYqf-50">
          <mxGeometry x="610" y="80" width="110" height="50" as="geometry" />
        </mxCell>
        <mxCell id="KHpiyqk_ItHP6PIgyYqf-52" value="" style="html=1;points=[[0,0,0,0,5],[0,1,0,0,-5],[1,0,0,0,5],[1,1,0,0,-5]];perimeter=orthogonalPerimeter;outlineConnect=0;targetShapes=umlLifeline;portConstraint=eastwest;newEdgeStyle={&quot;curved&quot;:0,&quot;rounded&quot;:0};" vertex="1" parent="KHpiyqk_ItHP6PIgyYqf-50">
          <mxGeometry x="660" y="145" width="10" height="85" as="geometry" />
        </mxCell>
        <mxCell id="KHpiyqk_ItHP6PIgyYqf-53" value="" style="endArrow=none;dashed=1;html=1;rounded=0;entryX=0.5;entryY=1;entryDx=0;entryDy=0;fillColor=none;" edge="1" parent="KHpiyqk_ItHP6PIgyYqf-50" source="KHpiyqk_ItHP6PIgyYqf-52">
          <mxGeometry width="50" height="50" relative="1" as="geometry">
            <mxPoint x="664.5" y="750" as="sourcePoint" />
            <mxPoint x="664.5" y="130" as="targetPoint" />
          </mxGeometry>
        </mxCell>
        <mxCell id="KHpiyqk_ItHP6PIgyYqf-54" value="" style="endArrow=none;dashed=1;html=1;rounded=0;entryX=0.5;entryY=1;entryDx=0;entryDy=0;" edge="1" parent="KHpiyqk_ItHP6PIgyYqf-50" target="KHpiyqk_ItHP6PIgyYqf-55">
          <mxGeometry width="50" height="50" relative="1" as="geometry">
            <mxPoint x="665" y="430" as="sourcePoint" />
            <mxPoint x="664.5" y="130" as="targetPoint" />
          </mxGeometry>
        </mxCell>
        <mxCell id="KHpiyqk_ItHP6PIgyYqf-55" value="" style="html=1;points=[[0,0,0,0,5],[0,1,0,0,-5],[1,0,0,0,5],[1,1,0,0,-5]];perimeter=orthogonalPerimeter;outlineConnect=0;targetShapes=umlLifeline;portConstraint=eastwest;newEdgeStyle={&quot;curved&quot;:0,&quot;rounded&quot;:0};" vertex="1" parent="KHpiyqk_ItHP6PIgyYqf-50">
          <mxGeometry x="660" y="280" width="10" height="85" as="geometry" />
        </mxCell>
        <mxCell id="KHpiyqk_ItHP6PIgyYqf-56" value="" style="endArrow=none;dashed=1;html=1;rounded=0;fillColor=none;" edge="1" parent="KHpiyqk_ItHP6PIgyYqf-50" source="KHpiyqk_ItHP6PIgyYqf-55" target="KHpiyqk_ItHP6PIgyYqf-52">
          <mxGeometry width="50" height="50" relative="1" as="geometry">
            <mxPoint x="710" y="320" as="sourcePoint" />
            <mxPoint x="665" y="240" as="targetPoint" />
          </mxGeometry>
        </mxCell>
        <mxCell id="KHpiyqk_ItHP6PIgyYqf-57" value="" style="html=1;points=[[0,0,0,0,5],[0,1,0,0,-5],[1,0,0,0,5],[1,1,0,0,-5]];perimeter=orthogonalPerimeter;outlineConnect=0;targetShapes=umlLifeline;portConstraint=eastwest;newEdgeStyle={&quot;curved&quot;:0,&quot;rounded&quot;:0};" vertex="1" parent="KHpiyqk_ItHP6PIgyYqf-50">
          <mxGeometry x="660" y="430" width="10" height="85" as="geometry" />
        </mxCell>
        <mxCell id="KHpiyqk_ItHP6PIgyYqf-58" value="" style="html=1;points=[[0,0,0,0,5],[0,1,0,0,-5],[1,0,0,0,5],[1,1,0,0,-5]];perimeter=orthogonalPerimeter;outlineConnect=0;targetShapes=umlLifeline;portConstraint=eastwest;newEdgeStyle={&quot;curved&quot;:0,&quot;rounded&quot;:0};" vertex="1" parent="KHpiyqk_ItHP6PIgyYqf-50">
          <mxGeometry x="660" y="630" width="10" height="100" as="geometry" />
        </mxCell>
        <mxCell id="KHpiyqk_ItHP6PIgyYqf-59" value="" style="endArrow=none;dashed=1;html=1;rounded=0;entryX=0.466;entryY=1.059;entryDx=0;entryDy=0;entryPerimeter=0;" edge="1" parent="KHpiyqk_ItHP6PIgyYqf-50" source="KHpiyqk_ItHP6PIgyYqf-58" target="KHpiyqk_ItHP6PIgyYqf-57">
          <mxGeometry width="50" height="50" relative="1" as="geometry">
            <mxPoint x="664.66" y="595" as="sourcePoint" />
            <mxPoint x="664.66" y="530" as="targetPoint" />
          </mxGeometry>
        </mxCell>
        <mxCell id="KHpiyqk_ItHP6PIgyYqf-60" value="SELECT ALL" style="html=1;verticalAlign=bottom;endArrow=block;curved=0;rounded=0;entryX=0;entryY=0;entryDx=0;entryDy=5;entryPerimeter=0;exitX=1;exitY=0.043;exitDx=0;exitDy=0;exitPerimeter=0;" edge="1" parent="KHpiyqk_ItHP6PIgyYqf-50">
          <mxGeometry relative="1" as="geometry">
            <mxPoint x="430" y="187" as="sourcePoint" />
            <mxPoint x="660" y="188" as="targetPoint" />
          </mxGeometry>
        </mxCell>
        <mxCell id="KHpiyqk_ItHP6PIgyYqf-32" value="topic[]" style="html=1;verticalAlign=bottom;endArrow=open;dashed=1;endSize=8;curved=0;rounded=0;" edge="1" parent="KHpiyqk_ItHP6PIgyYqf-50">
          <mxGeometry relative="1" as="geometry">
            <mxPoint x="430" y="220" as="targetPoint" />
            <mxPoint x="660" y="220" as="sourcePoint" />
          </mxGeometry>
        </mxCell>
        <mxCell id="KHpiyqk_ItHP6PIgyYqf-61" value="Bâtiments et organisations" style="html=1;verticalAlign=bottom;endArrow=open;dashed=1;endSize=8;curved=0;rounded=0;" edge="1" parent="KHpiyqk_ItHP6PIgyYqf-50">
          <mxGeometry relative="1" as="geometry">
            <mxPoint x="190" y="240" as="targetPoint" />
            <mxPoint x="420" y="240" as="sourcePoint" />
          </mxGeometry>
        </mxCell>
        <mxCell id="KHpiyqk_ItHP6PIgyYqf-62" value="anomalytype[]" style="html=1;verticalAlign=bottom;endArrow=open;dashed=1;endSize=8;curved=0;rounded=0;" edge="1" parent="KHpiyqk_ItHP6PIgyYqf-50">
          <mxGeometry relative="1" as="geometry">
            <mxPoint x="430" y="340" as="targetPoint" />
            <mxPoint x="660" y="340" as="sourcePoint" />
          </mxGeometry>
        </mxCell>
        <mxCell id="KHpiyqk_ItHP6PIgyYqf-72" value="&lt;div&gt;&lt;br&gt;&lt;/div&gt;&lt;div&gt;&lt;br&gt;&lt;/div&gt;" style="edgeLabel;html=1;align=center;verticalAlign=middle;resizable=0;points=[];" vertex="1" connectable="0" parent="KHpiyqk_ItHP6PIgyYqf-62">
          <mxGeometry x="-0.2435" y="-2" relative="1" as="geometry">
            <mxPoint as="offset" />
          </mxGeometry>
        </mxCell>
        <mxCell id="KHpiyqk_ItHP6PIgyYqf-41" value="types d&#39;anomalies" style="html=1;verticalAlign=bottom;endArrow=open;dashed=1;endSize=8;curved=0;rounded=0;" edge="1" parent="KHpiyqk_ItHP6PIgyYqf-50">
          <mxGeometry relative="1" as="geometry">
            <mxPoint x="190" y="350" as="targetPoint" />
            <mxPoint x="420" y="350" as="sourcePoint" />
          </mxGeometry>
        </mxCell>
        <mxCell id="KHpiyqk_ItHP6PIgyYqf-63" value="SELECT ALL" style="html=1;verticalAlign=bottom;endArrow=block;curved=0;rounded=0;entryX=0;entryY=0;entryDx=0;entryDy=5;entryPerimeter=0;exitX=1;exitY=0.043;exitDx=0;exitDy=0;exitPerimeter=0;" edge="1" parent="KHpiyqk_ItHP6PIgyYqf-50">
          <mxGeometry x="-0.0012" relative="1" as="geometry">
            <mxPoint x="430" y="310" as="sourcePoint" />
            <mxPoint x="660" y="310" as="targetPoint" />
            <mxPoint as="offset" />
          </mxGeometry>
        </mxCell>
        <mxCell id="KHpiyqk_ItHP6PIgyYqf-64" value="SELECT ALL" style="html=1;verticalAlign=bottom;endArrow=block;curved=0;rounded=0;entryX=0;entryY=0;entryDx=0;entryDy=5;entryPerimeter=0;exitX=1;exitY=0.043;exitDx=0;exitDy=0;exitPerimeter=0;" edge="1" parent="KHpiyqk_ItHP6PIgyYqf-50">
          <mxGeometry relative="1" as="geometry">
            <mxPoint x="430" y="470" as="sourcePoint" />
            <mxPoint x="660" y="470" as="targetPoint" />
          </mxGeometry>
        </mxCell>
        <mxCell id="KHpiyqk_ItHP6PIgyYqf-65" value="registertype[]" style="html=1;verticalAlign=bottom;endArrow=open;dashed=1;endSize=8;curved=0;rounded=0;" edge="1" parent="KHpiyqk_ItHP6PIgyYqf-50">
          <mxGeometry relative="1" as="geometry">
            <mxPoint x="430" y="500" as="targetPoint" />
            <mxPoint x="660" y="500" as="sourcePoint" />
          </mxGeometry>
        </mxCell>
        <mxCell id="KHpiyqk_ItHP6PIgyYqf-44" value="types de registres" style="html=1;verticalAlign=bottom;endArrow=open;dashed=1;endSize=8;curved=0;rounded=0;" edge="1" parent="KHpiyqk_ItHP6PIgyYqf-50">
          <mxGeometry relative="1" as="geometry">
            <mxPoint x="190" y="510" as="targetPoint" />
            <mxPoint x="420" y="510" as="sourcePoint" />
          </mxGeometry>
        </mxCell>
        <mxCell id="KHpiyqk_ItHP6PIgyYqf-66" value="INSERT INTO" style="html=1;verticalAlign=bottom;endArrow=block;curved=0;rounded=0;entryX=0;entryY=0;entryDx=0;entryDy=5;entryPerimeter=0;exitX=1;exitY=0.043;exitDx=0;exitDy=0;exitPerimeter=0;" edge="1" parent="KHpiyqk_ItHP6PIgyYqf-50">
          <mxGeometry relative="1" as="geometry">
            <mxPoint x="430" y="690" as="sourcePoint" />
            <mxPoint x="660" y="690" as="targetPoint" />
          </mxGeometry>
        </mxCell>
        <mxCell id="KHpiyqk_ItHP6PIgyYqf-39" value="" style="endArrow=none;dashed=1;html=1;rounded=0;fillColor=none;" edge="1" parent="1" source="KHpiyqk_ItHP6PIgyYqf-37" target="KHpiyqk_ItHP6PIgyYqf-30">
          <mxGeometry width="50" height="50" relative="1" as="geometry">
            <mxPoint x="520" y="270" as="sourcePoint" />
            <mxPoint x="520" y="260" as="targetPoint" />
          </mxGeometry>
        </mxCell>
      </root>
    </mxGraphModel>
  </diagram>
</mxfile>
